<?xml version="1.0" encoding="utf-8"?>
<!-- Generator: Adobe Illustrator 18.1.1, SVG Export Plug-In . SVG Version: 6.00 Build 0)  -->
<!DOCTYPE svg PUBLIC "-//W3C//DTD SVG 1.1//EN" "http://www.w3.org/Graphics/SVG/1.1/DTD/svg11.dtd">
<svg version="1.1" id="Layer_1" xmlns="http://www.w3.org/2000/svg" xmlns:xlink="http://www.w3.org/1999/xlink" x="0px" y="0px"
	 viewBox="0 0 219 98" enable-background="new 0 0 219 98" xml:space="preserve">
<path fill="#BFBE83" d="M53.7,0.5C25.1-2,1.1,5.5,0,17.2C-1,29,21.3,40.6,49.9,43.1c28.6,2.5,52.6-5,53.6-16.8
	C104.6,14.5,82.3,3,53.7,0.5z M95,25.4c0,0.1,0,0,0,0.1c-0.7-2.8-3.3-4.5-7.3-4.5h-3.6c-1.8,0-2.5,0.1-2.9-0.1c-0.7-0.4-1-1.1-1-1.9
	c0-1.6,0.6-2,3.3-2h8.1C94.1,20,95.3,22.6,95,25.4z M22,17h4.4c3.8,0,5.7,2.2,5.7,6.4c0,4-2.2,6.6-5.7,6.6H22V17z M8.7,18
	C9,14.4,12,11.2,16,8.7v21C11,26.2,8.3,22.1,8.7,18z M50.2,40.7C40.5,39.8,31.7,37,24.7,35h0.9c4,0,5.7-0.6,7.7-1.9
	c3.1-1.9,4.8-5.4,4.8-9.7c0-2.9-0.8-5.3-2.3-7.1C34,13.9,31.3,13,27.3,13H22V6.1c8-2.8,19.3-3.8,31.5-2.8C66.7,4.5,78.3,8,85.9,13
	h-4.5c-2.5,0-3.8,0.1-4.9,0.8c-1.6,1.2-2.5,3.1-2.5,5.3c0,2.2,0.9,4.4,2.5,5.5c1.3,1,2.7,1.4,5.5,1.4h3.7c1.5,0,2.1,0,2.5,0.2
	c0.7,0.3,1.1,0.9,1.1,1.8c0,1-0.5,1.7-1.5,1.8c-0.5,0-1.4,0.1-2.8,0.1H72v-9.4c0-2.4-0.8-4.3-2.1-5.7c-1.4-1.5-3.3-1.8-7.3-1.8H40
	v22h7V17h6v18h6V17h3.2c1.3,0,2.3,0.4,2.9,1c0.7,0.6,0.9,1.4,0.9,3.5V35h4.3h1.5h14.9c0.5,0,1-0.1,1.5-0.1
	C80.3,39.7,66.1,42.1,50.2,40.7z"/>
<path fill="#E48F00" d="M0.5,94.3h5.4c1.8,0,2.6-0.1,3.3-0.5c1.2-0.6,1.9-1.8,1.9-3.3c0-1.3-0.5-2.4-1.3-3.1c-0.7-0.6-1.7-0.8-4-0.8
	H5.1c-2.1,0-2.9-0.5-2.9-1.8c0-0.7,0.3-1.3,0.7-1.6c0.5-0.3,1-0.4,2.1-0.4h5.4v-1.7H5.1c-1.6,0-2.5,0.2-3.2,0.6
	C0.7,82.4,0,83.6,0,85.1c0,1.2,0.5,2.2,1.3,2.8C2,88.4,3,88.5,4.7,88.5h1.1c1.1,0,1.6,0,2,0.1c0.8,0.2,1.2,0.9,1.2,1.9
	c0,0.8-0.3,1.3-0.8,1.7c-0.4,0.3-0.9,0.4-1.9,0.4H0.5V94.3L0.5,94.3z"/>
<path fill-rule="evenodd" clip-rule="evenodd" fill="#E48F00" d="M17.6,84.6c-1.8,0-3,0.4-3.8,1.4c-0.8,0.9-1.2,2.2-1.2,3.7
	c0,3,1.8,4.7,4.9,4.7c3.1,0,4.9-1.8,4.9-4.8C22.3,86.4,20.6,84.6,17.6,84.6L17.6,84.6z M17.4,86.2c1.9,0,3,1.2,3,3.4
	c0,2.1-1,3.2-3,3.2c-1.9,0-2.9-1.1-2.9-3.2C14.5,87.4,15.5,86.2,17.4,86.2L17.4,86.2z"/>
<path fill="#E48F00" d="M31.6,84.7h-3.1c-1.8,0-2.7,0.3-3.6,1.3c-0.8,0.9-1.3,2.2-1.3,3.7c0,1.4,0.4,2.7,1.2,3.5
	c0.7,0.8,1.7,1.1,3.7,1.1h3.1v-1.5h-3.1c-1.1,0-1.6-0.1-2-0.5c-0.6-0.5-0.8-1.4-0.8-2.7c0-2.4,0.8-3.3,2.9-3.3h3.1V84.7L31.6,84.7z"
	/>
<path fill-rule="evenodd" clip-rule="evenodd" fill="#E48F00" d="M33.6,84.7v9.6h1.9v-9.6H33.6L33.6,84.7z M33.6,83.2h1.9v-2h-1.9
	V83.2L33.6,83.2z"/>
<path fill="#E48F00" d="M45.4,88.6h-5.8c0.3-1.8,1.1-2.4,3.3-2.4h2.5v-1.5h-2.8c-1.2,0-2.1,0.2-2.8,0.6c-1.4,0.8-2.2,2.3-2.2,4.4
	c0,1.6,0.5,2.9,1.3,3.7c0.7,0.7,1.5,0.9,3.2,0.9h3.3v-1.5h-2.8c-1.2,0-1.9-0.2-2.3-0.6c-0.5-0.5-0.7-1.1-0.7-2h5.8V88.6L45.4,88.6z"
	/>
<path fill="#E48F00" d="M48.4,84.7h-1.8v1.5h1.8v5.2c0,1.2,0.2,1.9,0.7,2.3c0.5,0.5,1,0.6,2.2,0.6h1.8v-1.5H52
	c-1.5,0-1.7-0.2-1.7-1.5v-5h2.8v-1.5h-2.8v-3.5h-1.9V84.7L48.4,84.7z"/>
<path fill="#E48F00" d="M61.2,92.8h-2.4c-1.6,0-2.1-0.5-2.1-2.3v-5.8h-1.9V90c0,1.2,0,1.6,0.1,2.1c0.1,0.7,0.6,1.3,1.3,1.8
	c0.7,0.4,1.1,0.5,2.3,0.5h2.6c0,0.7-0.1,1-0.4,1.2c-0.3,0.3-0.4,0.3-1.9,0.3h-4.1v1.5h4.2c1.5,0,2.2-0.1,2.7-0.3
	c0.8-0.4,1.2-1.1,1.3-2.3c0-0.3,0.1-1.6,0.1-2v-8h-1.9V92.8L61.2,92.8z"/>
<path fill-rule="evenodd" clip-rule="evenodd" fill="#BFBE83" d="M70.3,87.9v8.6h1.5v-2.2h1.4c1.2,0,1.8-0.2,2.3-0.7
	c0.6-0.6,0.9-1.5,0.9-2.5c0-1.1-0.3-2-0.9-2.6c-0.6-0.5-1.1-0.7-2.3-0.7H70.3L70.3,87.9z M71.8,89.1H73c1.2,0,1.8,0.6,1.8,2
	c0,0.7-0.2,1.3-0.5,1.7c-0.3,0.3-0.7,0.4-1.4,0.4h-1.2V89.1L71.8,89.1z"/>
<path fill="#BFBE83" d="M77.8,87.9v6.4h1.5v-5.2h0.5c0.9,0,1.1,0.3,1.1,1.2v0.5h1.4v-0.6c0-1-0.1-1.4-0.5-1.8
	c-0.4-0.4-0.9-0.5-2-0.5H77.8L77.8,87.9z"/>
<path fill-rule="evenodd" clip-rule="evenodd" fill="#BFBE83" d="M86.4,87.8c-2.1,0-3.4,1.2-3.4,3.3c0,2,1.2,3.2,3.3,3.2
	c2.1,0,3.3-1.2,3.3-3.2C89.6,89.1,88.4,87.8,86.4,87.8L86.4,87.8z M86.3,89c1.2,0,1.8,0.7,1.8,2.1c0,1.4-0.6,2.1-1.8,2.1
	c-1.2,0-1.8-0.7-1.8-2C84.5,89.8,85.1,89,86.3,89L86.3,89z"/>
<path fill="#BFBE83" d="M91,87.9v6.4h1.5v-5.2h2.2v5.2h1.5v-5.2h1c1,0,1.3,0.3,1.3,1.3v3.9h1.5v-4c0-0.9-0.2-1.5-0.6-1.9
	c-0.4-0.4-0.9-0.5-2.2-0.5H91L91,87.9z"/>
<path fill-rule="evenodd" clip-rule="evenodd" fill="#BFBE83" d="M104.4,87.8c-2.1,0-3.4,1.2-3.4,3.3c0,2,1.2,3.2,3.3,3.2
	c2.1,0,3.3-1.2,3.3-3.2C107.7,89.1,106.5,87.8,104.4,87.8L104.4,87.8z M104.3,89c1.2,0,1.8,0.7,1.8,2.1c0,1.4-0.6,2.1-1.8,2.1
	c-1.2,0-1.8-0.7-1.8-2C102.6,89.8,103.2,89,104.3,89L104.3,89z"/>
<path fill="#BFBE83" d="M109.5,87.9h-1.2v1.2h1.2v3.1c0,0.9,0.1,1.4,0.5,1.7c0.3,0.3,0.7,0.4,1.5,0.4h1.3v-1.2h-0.7
	c-0.9,0-1-0.2-1-1.2v-2.9h1.8v-1.2H111v-2.4h-1.5V87.9L109.5,87.9z"/>
<path fill-rule="evenodd" clip-rule="evenodd" fill="#BFBE83" d="M114,87.9v6.4h1.5v-6.4H114L114,87.9z M114,87h1.5v-1.5H114V87
	L114,87z"/>
<path fill="#BFBE83" d="M117.3,87.9v6.4h1.5v-5.2h1.5c0.9,0,1.2,0.4,1.2,1.3v3.9h1.5v-3.9c0-0.9-0.2-1.5-0.5-1.9
	c-0.4-0.5-1-0.7-2-0.7H117.3L117.3,87.9z"/>
<path fill-rule="evenodd" clip-rule="evenodd" fill="#BFBE83" d="M130.5,87.9h-2.9c-1.2,0-1.8,0.2-2.3,0.7c-0.6,0.6-1,1.5-1,2.6
	c0,1.2,0.4,2.1,1.1,2.6c0.6,0.4,1,0.5,2.1,0.5h1.5c0,0.9-0.1,1-1,1h-3.1v1.2h3.1c1.2,0,1.7-0.1,2.1-0.6c0.3-0.4,0.4-0.8,0.4-2V87.9
	L130.5,87.9z M129,89.1v4.1h-1.4c-0.7,0-1-0.1-1.3-0.5c-0.3-0.3-0.5-0.9-0.5-1.5c0-0.6,0.1-1.2,0.4-1.5c0.3-0.4,0.7-0.6,1.5-0.6H129
	L129,89.1z"/>
<path fill="#BFBE83" d="M136.1,89.1v5.2h1.5v-5.2h1.9v-1.2h-1.9v-0.3c0-0.7,0.2-0.9,0.9-0.9h1v-1.2h-1.4c-1.4,0-2,0.6-2,2v0.3H135
	v1.2H136.1L136.1,89.1z"/>
<path fill="#BFBE83" d="M144.7,93.1h-1.5c-0.9,0-1.2-0.3-1.2-1.3v-3.9h-1.5v3.8c0,0.9,0.1,1.4,0.5,1.8c0.5,0.6,0.9,0.7,2.2,0.7h3.1
	v-6.4h-1.5V93.1L144.7,93.1z"/>
<path fill="#BFBE83" d="M147.9,87.9v6.4h1.5v-5.2h1.5c0.9,0,1.2,0.4,1.2,1.3v3.9h1.5v-3.9c0-0.9-0.2-1.5-0.5-1.9
	c-0.4-0.5-1-0.7-2-0.7H147.9L147.9,87.9z"/>
<path fill-rule="evenodd" clip-rule="evenodd" fill="#BFBE83" d="M161.2,87.9h-2.9c-1.2,0-1.8,0.2-2.3,0.7c-0.6,0.6-1,1.5-1,2.6
	c0,1.2,0.4,2.1,1.1,2.6c0.6,0.4,1,0.5,2.1,0.5h1.5c0,0.9-0.1,1-1,1h-3.1v1.2h3.1c1.2,0,1.7-0.1,2.1-0.6c0.3-0.4,0.4-0.8,0.4-2V87.9
	L161.2,87.9z M159.7,89.1v4.1h-1.4c-0.7,0-1-0.1-1.3-0.5c-0.3-0.3-0.5-0.9-0.5-1.5c0-0.6,0.1-1.2,0.4-1.5c0.3-0.4,0.7-0.6,1.5-0.6
	H159.7L159.7,89.1z"/>
<path fill-rule="evenodd" clip-rule="evenodd" fill="#BFBE83" d="M165.1,90.4c-0.7,0-1.2,0.1-1.5,0.2c-0.6,0.3-1,1-1,1.8
	c0,0.6,0.2,1.2,0.7,1.5c0.4,0.3,0.8,0.4,2.1,0.4h3.4v-3.8c0-1-0.1-1.5-0.5-1.9c-0.4-0.5-0.9-0.6-2.2-0.6h-3.1v1.2h3
	c0.7,0,1,0.1,1.2,0.4c0.2,0.2,0.2,0.4,0.2,1H165.1L165.1,90.4z M167.3,91.6v1.6h-2.1c-0.8,0-1.1-0.2-1.1-0.8c0-0.4,0.2-0.6,0.4-0.7
	c0.2-0.1,0.3-0.1,0.7-0.1H167.3L167.3,91.6z"/>
<polygon fill="#BFBE83" points="172,94.3 172,85.5 170.5,85.5 170.5,94.3 172,94.3 "/>
<path fill="#BFBE83" d="M182.4,87.9H179c-0.7,0-1.1,0.1-1.5,0.3c-0.5,0.3-0.8,0.9-0.8,1.6c0,0.6,0.3,1.2,0.7,1.6
	c0.4,0.3,0.7,0.4,1.9,0.4h0.8c0.5,0,0.7,0,0.8,0.1c0.2,0.1,0.4,0.3,0.4,0.7c0,0.3-0.1,0.6-0.4,0.6c-0.2,0.1-0.4,0.1-1,0.1h-3.1v1.2
	h3.5c0.9,0,1.2,0,1.5-0.2c0.6-0.2,0.9-1,0.9-1.8c0-0.6-0.2-1.2-0.6-1.5c-0.3-0.2-0.7-0.3-1.7-0.3h-0.9c-1,0-1.2-0.1-1.2-0.7
	c0-0.3,0.1-0.5,0.2-0.6c0.2-0.1,0.3-0.1,1-0.1h3V87.9L182.4,87.9z"/>
<path fill="#BFBE83" d="M189.1,87.9h-2.2c-1.2,0-1.8,0.2-2.4,0.7c-0.6,0.6-0.9,1.5-0.9,2.5c0,0.9,0.3,1.8,0.8,2.3
	c0.5,0.6,1.2,0.8,2.5,0.8h2.2v-1.2h-2c-0.7,0-1.1-0.1-1.4-0.3c-0.4-0.3-0.6-0.9-0.6-1.7c0-1.5,0.5-2.1,1.9-2.1h2.1V87.9L189.1,87.9z
	"/>
<path fill-rule="evenodd" clip-rule="evenodd" fill="#BFBE83" d="M190.5,87.9v6.4h1.5v-6.4H190.5L190.5,87.9z M190.5,87h1.5v-1.5
	h-1.5V87L190.5,87z"/>
<path fill="#BFBE83" d="M198.7,90.5h-3.8c0.1-1.1,0.6-1.4,1.8-1.4h2v-1.2h-2.1c-1,0-1.7,0.2-2.2,0.7c-0.6,0.6-1,1.6-1,2.7
	c0,0.8,0.3,1.7,0.8,2.2c0.6,0.6,1.2,0.8,2.3,0.8h2.3v-1.2h-2c-0.7,0-1-0.1-1.3-0.3c-0.3-0.3-0.4-0.6-0.5-1.2h3.8V90.5L198.7,90.5z"
	/>
<path fill="#BFBE83" d="M200.2,87.9v6.4h1.5v-5.2h1.5c0.9,0,1.2,0.4,1.2,1.3v3.9h1.5v-3.9c0-0.9-0.2-1.5-0.5-1.9
	c-0.4-0.5-1-0.7-2-0.7H200.2L200.2,87.9z"/>
<path fill="#BFBE83" d="M212.7,87.9h-2.2c-1.2,0-1.8,0.2-2.4,0.7c-0.6,0.6-0.9,1.5-0.9,2.5c0,0.9,0.3,1.8,0.8,2.3
	c0.5,0.6,1.2,0.8,2.5,0.8h2.2v-1.2h-2c-0.7,0-1.1-0.1-1.4-0.3c-0.4-0.3-0.6-0.9-0.6-1.7c0-1.5,0.5-2.1,1.9-2.1h2.1V87.9L212.7,87.9z
	"/>
<path fill="#BFBE83" d="M218.9,90.5h-3.8c0.1-1.1,0.6-1.4,1.8-1.4h2v-1.2h-2.1c-1.1,0-1.7,0.2-2.2,0.7c-0.6,0.6-1,1.6-1,2.7
	c0,0.8,0.3,1.7,0.8,2.2c0.6,0.6,1.2,0.8,2.3,0.8h2.3v-1.2h-2c-0.7,0-1.1-0.1-1.3-0.3c-0.3-0.3-0.4-0.6-0.5-1.2h3.8V90.5L218.9,90.5z
	"/>
<path fill-rule="evenodd" clip-rule="evenodd" fill="#E48F00" d="M0.7,74.6h5.8c1.8,0,3-0.2,3.7-0.7c1-0.6,1.5-1.7,1.5-3
	c0-1.6-0.7-2.5-2.2-3c1.4-0.6,2-1.6,2-3c0-0.9-0.3-1.7-0.9-2.3c-0.7-0.8-1.6-1-3.7-1H0.7V74.6L0.7,74.6z M2.8,67v-3.9H7
	c1.1,0,1.4,0.1,1.8,0.5c0.4,0.3,0.6,0.9,0.6,1.5c0,0.7-0.3,1.2-0.7,1.6C8.3,66.9,7.8,67,7,67H2.8L2.8,67z M2.8,72.9v-4.2H7
	c1.8,0,2.5,0.6,2.5,2c0,1.5-0.9,2.2-2.7,2.2H2.8L2.8,72.9z"/>
<path fill="#E48F00" d="M13.8,65v9.6h1.9v-8h0.7c1.3,0,1.7,0.4,1.7,1.8v0.9H20v-0.9c0-1.5-0.2-2.1-0.8-2.7c-0.6-0.6-1.4-0.7-3-0.7
	H13.8L13.8,65z"/>
<path fill-rule="evenodd" clip-rule="evenodd" fill="#E48F00" d="M21.7,65v9.6h1.9V65H21.7L21.7,65z M21.7,63.5h1.9v-2h-1.9V63.5
	L21.7,63.5z"/>
<path fill="#E48F00" d="M27.2,65h-1.8v1.5h1.8v5.2c0,1.2,0.2,1.9,0.6,2.3c0.5,0.5,1,0.6,2.2,0.6h1.8v-1.5h-1.1
	c-1.5,0-1.7-0.2-1.7-1.5v-5h2.8V65h-2.8v-3.5h-1.9V65L27.2,65z"/>
<path fill-rule="evenodd" clip-rule="evenodd" fill="#E48F00" d="M33.8,65v9.6h1.9V65H33.8L33.8,65z M33.8,63.5h1.9v-2h-1.9V63.5
	L33.8,63.5z"/>
<path fill="#E48F00" d="M46.2,65h-4.8c-1.1,0-1.7,0.1-2.2,0.4c-0.8,0.4-1.3,1.3-1.3,2.5c0,0.9,0.4,1.8,1,2.3c0.6,0.5,1,0.6,3.1,0.6
	h0.8c0.9,0,1.2,0,1.4,0.1c0.4,0.1,0.6,0.4,0.6,1.1c0,0.6-0.1,0.9-0.5,1.1c-0.2,0.1-0.7,0.1-1.7,0.1h-4.6v1.5H43c1.5,0,1.9,0,2.3-0.3
	c0.8-0.4,1.3-1.3,1.3-2.6c0-1.1-0.3-2-0.9-2.4C45.3,69.1,45.2,69,43,69h-1.3c-1.6,0-1.9-0.2-1.9-1.2c0-0.5,0.1-0.8,0.3-1
	c0.2-0.3,0.4-0.3,1.8-0.3h4.3V65L46.2,65z"/>
<path fill="#E48F00" d="M50.7,61.5h-1.9v13.1h1.9v-8.1h2.2c2,0,2.4,0.5,2.4,2.5v5.6h1.9v-5.4c0-1.8-0.3-2.7-1-3.3
	c-0.7-0.6-1.7-0.9-3.4-0.9h-2.2V61.5L50.7,61.5z"/>
<polygon fill="#E48F00" points="67.9,61.5 64.9,61.5 64.9,74.6 66.9,74.6 66.9,63.4 71.1,74.6 73.2,74.6 77.3,63.4 77.3,74.6 
	79.3,74.6 79.3,61.5 76.2,61.5 72.3,72.2 67.9,61.5 "/>
<path fill="#E48F00" d="M88.3,73.1h-2.4c-1.6,0-2.1-0.5-2.1-2.3V65h-1.9v5.3c0,1.2,0,1.6,0.1,2.1c0.1,0.7,0.6,1.3,1.3,1.8
	c0.7,0.4,1.1,0.5,2.3,0.5h2.6c0,0.7-0.1,1-0.4,1.2c-0.3,0.3-0.4,0.3-1.9,0.3h-4.1v1.5h4.2c1.5,0,2.2-0.1,2.7-0.3
	c0.8-0.4,1.2-1.1,1.3-2.3c0-0.3,0.1-1.6,0.1-2v-8h-1.9V73.1L88.3,73.1z"/>
<path fill="#E48F00" d="M100.2,65h-3.1c-1.8,0-2.7,0.3-3.6,1.3c-0.8,0.9-1.3,2.2-1.3,3.7c0,1.4,0.4,2.7,1.2,3.5
	c0.7,0.8,1.7,1.1,3.7,1.1h3.1v-1.5h-3.1c-1.1,0-1.6-0.1-2-0.5c-0.6-0.5-0.8-1.4-0.8-2.7c0-2.4,0.8-3.3,2.9-3.3h3.1V65L100.2,65z"/>
<path fill-rule="evenodd" clip-rule="evenodd" fill="#E48F00" d="M106.6,64.9c-1.8,0-3,0.4-3.8,1.4c-0.8,0.9-1.2,2.2-1.2,3.7
	c0,3,1.8,4.7,4.9,4.7c3.1,0,4.9-1.8,4.9-4.8C111.3,66.7,109.6,64.9,106.6,64.9L106.6,64.9z M106.4,66.5c1.9,0,3,1.2,3,3.4
	c0,2.1-1,3.2-3,3.2c-1.9,0-2.9-1.1-2.9-3.2C103.5,67.7,104.5,66.5,106.4,66.5L106.4,66.5z"/>
<polygon fill="#E48F00" points="115.3,74.6 115.3,61.5 113.4,61.5 113.4,74.6 115.3,74.6 "/>
<path fill-rule="evenodd" clip-rule="evenodd" fill="#E48F00" d="M122.4,64.9c-1.8,0-3,0.4-3.8,1.4c-0.8,0.9-1.2,2.2-1.2,3.7
	c0,3,1.8,4.7,4.9,4.7c3.1,0,4.9-1.8,4.9-4.8C127.1,66.7,125.4,64.9,122.4,64.9L122.4,64.9z M122.2,66.5c1.9,0,3,1.2,3,3.4
	c0,2.1-1,3.2-3,3.2c-1.9,0-2.9-1.1-2.9-3.2C119.3,67.7,120.3,66.5,122.2,66.5L122.2,66.5z"/>
<path fill-rule="evenodd" clip-rule="evenodd" fill="#E48F00" d="M137.5,65h-4c-2.1,0-3,0.3-3.8,1.2c-0.8,0.9-1.2,2.2-1.2,3.8
	c0,1.9,0.7,3.3,1.9,4c0.8,0.5,1.2,0.6,3.2,0.6h2V75c0,1-0.2,1.2-1.7,1.2h-4.4v1.5h4.1c1.3,0,1.7,0,2.3-0.2c0.8-0.3,1.4-0.8,1.5-1.6
	c0.1-0.5,0.1-0.5,0.1-2.3V65L137.5,65z M135.6,66.5v6.6h-2.2c-1.2,0-1.7-0.2-2.2-0.7c-0.4-0.5-0.7-1.4-0.7-2.4c0-0.9,0.2-2,0.6-2.5
	c0.5-0.7,1-1,2.6-1H135.6L135.6,66.5z"/>
<path fill-rule="evenodd" clip-rule="evenodd" fill="#E48F00" d="M140.3,65v9.6h1.9V65H140.3L140.3,65z M140.3,63.5h1.9v-2h-1.9
	V63.5L140.3,63.5z"/>
<path fill="#E48F00" d="M152.1,65h-3.1c-1.8,0-2.7,0.3-3.6,1.3c-0.8,0.9-1.3,2.2-1.3,3.7c0,1.4,0.4,2.7,1.2,3.5
	c0.7,0.8,1.7,1.1,3.7,1.1h3.1v-1.5h-3.1c-1.1,0-1.6-0.1-2-0.5c-0.6-0.5-0.8-1.4-0.8-2.7c0-2.4,0.8-3.3,2.9-3.3h3.1V65L152.1,65z"/>
<path fill-rule="evenodd" clip-rule="evenodd" fill="#E48F00" d="M157.2,68.8c-1.2,0-1.9,0.1-2.4,0.4c-0.8,0.5-1.3,1.4-1.3,2.6
	c0,0.9,0.4,1.7,1,2.2c0.7,0.5,1.2,0.6,3.1,0.6h4.9v-6.1c0-1.5-0.1-2.1-0.6-2.6c-0.6-0.6-1.3-0.9-3.1-0.9h-4.9v1.5h4.5
	c1.9,0,2.2,0.3,2.2,2.2H157.2L157.2,68.8z M160.6,70.3v2.8h-3.2c-1.4,0-1.9-0.4-1.9-1.4c0-1,0.5-1.4,1.9-1.4H160.6L160.6,70.3z"/>
<polygon fill="#E48F00" points="167,74.6 167,61.5 165.1,61.5 165.1,74.6 167,74.6 "/>
</svg>
